<svg width="23" height="23" viewBox="0 0 23 23" fill="none" xmlns="http://www.w3.org/2000/svg">
<path d="M21.3053 16.0136C19.7428 16.0136 18.2428 15.7636 16.8428 15.3011C16.4053 15.1636 15.9178 15.2636 15.5678 15.6011L12.8178 18.3511C9.28028 16.5511 6.38027 13.6636 4.58027 10.1136L7.33027 7.35111C7.68027 7.02611 7.78027 6.53861 7.64277 6.10111C7.18027 4.70111 6.93027 3.20111 6.93027 1.63861C6.93027 0.951111 6.36777 0.388611 5.68027 0.388611H1.30527C0.617775 0.388611 0.055275 0.951111 0.055275 1.63861C0.055275 13.3761 9.56777 22.8886 21.3053 22.8886C21.9928 22.8886 22.5553 22.3261 22.5553 21.6386V17.2636C22.5553 16.5761 21.9928 16.0136 21.3053 16.0136ZM22.5553 4.13861H18.8053V0.388611H16.3053V4.13861H12.5553V6.63861H16.3053V10.3886H18.8053V6.63861H22.5553V4.13861Z" fill="#FF7A00"/>
</svg>
